<?xml version="1.0" encoding="UTF-8"?>
<svg id="a" data-name="light" xmlns="http://www.w3.org/2000/svg" xmlns:xlink="http://www.w3.org/1999/xlink" viewBox="0 0 40 40">
  <defs>
    <linearGradient id="b" x1="5.69" y1="29.87" x2="35.32" y2="9.43" gradientUnits="userSpaceOnUse">
      <stop offset="0" stop-color="#229eff"/>
      <stop offset="1" stop-color="#1769aa"/>
    </linearGradient>
  </defs>
  <path d="M7.38,38c-.19,0-.37-.09-.47-.22-.09-.11-.11-.25-.07-.39l3.02-6.36c.15-.33.08-.71-.17-.96-1.93-1.98-3.25-4.47-3.81-7.16-.08-.4-.42-.7-.83-.7h-2.49c-.22,0-.42-.11-.51-.28-.08-.15-.06-.32.03-.45l3.52-3.54c.12-.12.2-.28.23-.45.99-5.95,5.66-10.63,11.69-11.67.17-.03.33-.11.45-.23l3.31-3.36c.08-.12.26-.21.46-.21h14.22c.23,0,.44.12.52.31.07.17.04.35-.09.48l-5.9,6.16c-.32.33-.3.85.01,1.18.78.83,1.46,1.75,2.03,2.74.15.27.43.43.73.43h4.17c.25,0,.46.14.53.35.06.18,0,.37-.16.5l-3.29,2.6c-.25.19-.36.51-.3.82.42,2.44.21,4.88-.64,7.26-1.62,4.55-5.5,8.07-10.13,9.18-1.14.27-2.3.41-3.45.41-1.95,0-3.85-.39-5.66-1.17-.29-.12-.62-.09-.87.11l-5.72,4.51c-.11.09-.23.13-.37.13ZM20,7.64c-.69,0-1.4.06-2.09.17-5.11.83-9.26,4.98-10.1,10.1-.95,5.85,2.2,11.77,8.41,13.89,1.21.41,2.5.56,3.78.56h0c.69,0,1.4-.06,2.09-.17,5.11-.83,9.26-4.98,10.09-10.09.59-3.65-.41-7.33-2.77-10.1-2.35-2.76-5.78-4.35-9.42-4.35ZM20,29.07c-3.43,0-6.42-2.33-7.44-3.99-.21-.34-.43-.81-.27-1.13.1-.2.25-.24.36-.24.24,0,.55.19,1,.48,1.06.67,3.02,1.91,6.35,1.91s5.36-1.17,6.6-1.87c.55-.31.92-.52,1.2-.52.17,0,.31.08.39.24.11.21.05.53-.2.93-.86,1.41-4.18,4.19-7.98,4.19ZM24.91,19.25c-.81,0-1.48-.66-1.48-1.48v-1.79c0-.82.66-1.48,1.48-1.48s1.48.66,1.48,1.48v1.79c0,.82-.66,1.48-1.48,1.48h0ZM15.09,19.25c-.81,0-1.48-.66-1.48-1.48v-1.79c0-.82.66-1.48,1.48-1.48s1.48.66,1.48,1.48v1.79c0,.82-.66,1.48-1.48,1.48h0Z" style="fill: url(#b);"/>
</svg>