<?xml version="1.0" encoding="UTF-8"?>
<svg id="e" data-name="dark_x40_20x20" xmlns="http://www.w3.org/2000/svg" viewBox="0 0 20 20">
  <path d="M3.34,19.5c-.1,0-.2-.05-.25-.12-.04-.06-.06-.13-.04-.21l1.6-3.36c.08-.17.04-.37-.09-.51-1.02-1.04-1.72-2.36-2.01-3.78-.04-.21-.22-.37-.44-.37H.79c-.12,0-.22-.06-.27-.15-.04-.08-.03-.17.02-.24l1.86-1.87c.06-.06.1-.15.12-.24.52-3.14,2.99-5.61,6.17-6.16.09-.02.17-.06.24-.12l1.75-1.77c.04-.07.14-.11.24-.11h7.51c.12,0,.23.07.28.17.04.09.02.18-.05.26l-3.11,3.25c-.17.18-.16.45,0,.63.41.44.77.92,1.07,1.45.08.14.22.23.39.23h2.2c.13,0,.24.07.28.18.03.1,0,.2-.08.26l-1.74,1.37c-.13.1-.19.27-.16.43.22,1.29.11,2.58-.34,3.83-.85,2.4-2.9,4.26-5.35,4.85-.6.14-1.22.22-1.82.22-1.03,0-2.03-.21-2.99-.62-.15-.07-.33-.05-.46.06l-3.02,2.38c-.06.04-.12.07-.2.07ZM10,3.48c-.37,0-.74.03-1.1.09-2.7.44-4.89,2.63-5.33,5.33-.5,3.09,1.16,6.21,4.44,7.33.64.22,1.32.29,1.99.29h0c.37,0,.74-.03,1.1-.09,2.7-.44,4.89-2.63,5.33-5.33.31-1.93-.22-3.87-1.46-5.33-1.24-1.46-3.05-2.3-4.97-2.3ZM10,14.79c-1.81,0-3.39-1.23-3.93-2.11-.11-.18-.23-.43-.15-.59.05-.1.13-.13.19-.13.13,0,.29.1.53.25.56.35,1.59,1.01,3.35,1.01s2.83-.62,3.48-.99c.29-.16.49-.27.63-.27.09,0,.16.04.2.13.06.11.02.28-.11.49-.45.75-2.21,2.21-4.21,2.21ZM12.59,9.6c-.43,0-.78-.35-.78-.78v-.95c0-.43.35-.78.78-.78s.78.35.78.78v.94c0,.43-.35.78-.78.78h0ZM7.41,9.6c-.43,0-.78-.35-.78-.78v-.95c0-.43.35-.78.78-.78s.78.35.78.78v.94c0,.43-.35.78-.78.78h0Z" style="fill: #ced0d6;"/>
</svg>