<?xml version="1.0" encoding="UTF-8"?>
<svg id="c" data-name="dark" xmlns="http://www.w3.org/2000/svg" viewBox="0 0 16 16">
  <path d="M3.09,15c-.07,0-.14-.03-.18-.09-.03-.04-.04-.1-.03-.15l1.18-2.47c.06-.13.03-.27-.07-.37-.75-.77-1.27-1.74-1.48-2.79-.03-.16-.16-.27-.32-.27h-.97c-.09,0-.16-.04-.2-.11-.03-.06-.02-.12.01-.18l1.37-1.38s.08-.11.09-.17c.39-2.32,2.2-4.13,4.54-4.54.07-.01.13-.04.17-.09l1.29-1.31s.1-.08.18-.08h5.53c.09,0,.17.05.2.12.03.06.01.13-.04.19l-2.29,2.39c-.12.13-.12.33,0,.46.31.32.57.68.79,1.06.06.1.17.17.28.17h1.62c.1,0,.18.05.21.13.02.07,0,.14-.06.19l-1.28,1.01c-.1.08-.14.2-.12.32.16.95.08,1.9-.25,2.82-.63,1.77-2.14,3.14-3.94,3.57-.44.11-.9.16-1.34.16-.76,0-1.5-.15-2.2-.46-.11-.05-.24-.03-.34.04l-2.22,1.75s-.09.05-.15.05ZM8,3.19c-.27,0-.54.02-.81.07-1.99.32-3.6,1.94-3.93,3.93-.37,2.27.86,4.58,3.27,5.4.47.16.97.22,1.47.22h0c.27,0,.54-.02.81-.07,1.99-.32,3.6-1.94,3.93-3.93.23-1.42-.16-2.85-1.08-3.93-.91-1.08-2.25-1.69-3.66-1.69ZM8,11.53c-1.33,0-2.5-.91-2.89-1.55-.08-.13-.17-.32-.11-.44.04-.08.1-.09.14-.09.09,0,.21.07.39.19.41.26,1.17.74,2.47.74s2.08-.46,2.57-.73c.22-.12.36-.2.46-.2.07,0,.12.03.15.09.04.08.02.21-.08.36-.33.55-1.62,1.63-3.1,1.63ZM9.91,7.71c-.32,0-.57-.26-.58-.57v-.7c0-.32.26-.58.58-.58s.58.26.58.58v.69c0,.32-.26.58-.58.58h0ZM6.09,7.71c-.32,0-.57-.26-.58-.57v-.7c0-.32.26-.58.58-.58s.58.26.58.58v.69c0,.32-.26.58-.58.58h0Z" style="fill: #ced0d6;"/>
</svg>