<?xml version="1.0" encoding="UTF-8"?>
<svg id="d" data-name="light_x40_20x20" xmlns="http://www.w3.org/2000/svg" viewBox="0 0 20 20">
  <path d="M3.69,19c-.09,0-.18-.04-.24-.11-.04-.06-.06-.13-.04-.19l1.51-3.18c.08-.16.04-.35-.09-.48-.96-.99-1.63-2.24-1.9-3.58-.04-.2-.21-.35-.42-.35h-1.25c-.11,0-.21-.05-.25-.14-.04-.07-.03-.16.02-.23l1.76-1.77c.06-.06.1-.14.11-.22.5-2.98,2.83-5.31,5.84-5.84.08-.01.16-.05.22-.12l1.66-1.68c.04-.06.13-.11.23-.11h7.11c.12,0,.22.06.26.16.04.08.02.17-.05.24l-2.95,3.08c-.16.17-.15.42,0,.59.39.42.73.88,1.01,1.37.08.13.21.22.37.22h2.09c.12,0,.23.07.27.17.03.09,0,.19-.08.25l-1.65,1.3c-.12.1-.18.25-.15.41.21,1.22.1,2.44-.32,3.63-.81,2.27-2.75,4.03-5.07,4.59-.57.14-1.15.21-1.72.21-.98,0-1.93-.2-2.83-.59-.14-.06-.31-.04-.43.05l-2.86,2.25c-.05.04-.12.06-.19.06ZM10,3.82c-.35,0-.7.03-1.05.09-2.56.42-4.63,2.49-5.05,5.05-.48,2.92,1.1,5.88,4.21,6.95.6.21,1.25.28,1.89.28h0c.35,0,.7-.03,1.05-.09,2.56-.42,4.63-2.49,5.05-5.05.3-1.83-.21-3.67-1.38-5.05-1.18-1.38-2.89-2.18-4.71-2.18ZM10,14.54c-1.72,0-3.21-1.17-3.72-1.99-.11-.17-.22-.41-.14-.56.05-.1.13-.12.18-.12.12,0,.27.1.5.24.53.33,1.51.96,3.18.96s2.68-.59,3.3-.94c.28-.16.46-.26.6-.26.09,0,.15.04.19.12.06.11.02.26-.1.47-.43.71-2.09,2.09-3.99,2.09ZM12.45,9.63c-.41,0-.74-.33-.74-.74v-.9c0-.41.33-.74.74-.74s.74.33.74.74v.89c0,.41-.33.74-.74.74h0ZM7.54,9.63c-.41,0-.74-.33-.74-.74v-.9c0-.41.33-.74.74-.74s.74.33.74.74v.89c0,.41-.33.74-.74.74h0Z" style="fill: #6c707e;"/>
</svg>